<svg xmlns="http://www.w3.org/2000/svg" width="24" height="24" viewBox="0 0 24 24" fill="none">
  <!-- file-locksmith 文件占用查看：文档 + 锁 -->
  <path fill="none" d="M6.5 3.5H13.5L17.5 7.5V18.5C17.5 19.6 16.6 20.5 15.5 20.5H6.5C5.4 20.5 4.5 19.6 4.5 18.5V5.5C4.5 4.4 5.4 3.5 6.5 3.5Z" stroke="#0F6CBD" stroke-width="1.5" stroke-linecap="round" stroke-linejoin="round"/>
  <path fill="none" d="M13.5 3.5V7.5H17.5" stroke="#0F6CBD" stroke-width="1.5" stroke-linecap="round" stroke-linejoin="round"/>
  <path fill="none" d="M10.5 13.5V12.5C10.5 11.4 11.4 10.5 12.5 10.5C13.6 10.5 14.5 11.4 14.5 12.5V13.5" stroke="#2B88D8" stroke-width="1.5" stroke-linecap="round" stroke-linejoin="round"/>
  <path fill="none" d="M9.5 13.5H15.5C16.05 13.5 16.5 13.95 16.5 14.5V17.5C16.5 18.05 16.05 18.5 15.5 18.5H9.5C8.95 18.5 8.5 18.05 8.5 17.5V14.5C8.5 13.95 8.95 13.5 9.5 13.5Z" stroke="#2B88D8" stroke-width="1.5" stroke-linecap="round" stroke-linejoin="round"/>
</svg>
