<svg xmlns="http://www.w3.org/2000/svg" width="24" height="24" viewBox="0 0 24 24" fill="none">
  <!-- handle-cleaner 句柄清理：句柄清单 + 清理闪光 -->
  <path fill="none" d="M6.5 4.5H12C13.66 4.5 15 5.84 15 7.5V16.5C15 18.16 13.66 19.5 12 19.5H6.5C4.84 19.5 3.5 18.16 3.5 16.5V7.5C3.5 5.84 4.84 4.5 6.5 4.5Z" stroke="#0F6CBD" stroke-width="1.5" stroke-linecap="round" stroke-linejoin="round"/>
  <path fill="none" d="M6.75 9.25H11.75" stroke="#6CB8F0" stroke-width="1.5" stroke-linecap="round" stroke-linejoin="round"/>
  <path fill="none" d="M6.75 13H11.75" stroke="#6CB8F0" stroke-width="1.5" stroke-linecap="round" stroke-linejoin="round"/>
  <path fill="#6CB8F0" d="M18.75 3.5C18.97 6.07 19.43 6.53 22 6.75C19.43 6.97 18.97 7.43 18.75 10C18.53 7.43 18.07 6.97 15.5 6.75C18.07 6.53 18.53 6.07 18.75 3.5Z"/>
</svg>
